<svg width="14" height="14" viewBox="0 0 14 14" fill="none" xmlns="http://www.w3.org/2000/svg">
<path d="M0.249969 3.25C0.249969 1.59325 1.59322 0.25 3.24997 0.25H4.74997C5.16397 0.25 5.49997 0.586 5.49997 1C5.49997 1.414 5.16397 1.75 4.74997 1.75H3.24997C2.42122 1.75 1.74997 2.42125 1.74997 3.25V10.75C1.74997 11.5787 2.42122 12.25 3.24997 12.25H10.75C11.5787 12.25 12.25 11.5787 12.25 10.75V3.25C12.25 2.42125 11.5787 1.75 10.75 1.75H9.24998C8.42123 1.75 7.74998 2.42125 7.74998 3.25L7.74997 7.75H9.99997L6.99997 10.75L3.99997 7.75H6.24997V3.25C6.24997 1.59325 7.59323 0.25 9.24998 0.25H10.75C12.4067 0.25 13.75 1.59325 13.75 3.25V10.75C13.75 12.4067 12.4067 13.75 10.75 13.75H3.24997C1.59322 13.75 0.249969 12.4067 0.249969 10.75V3.25Z" fill="black"/>
</svg>
